<mxfile host="app.diagrams.net" modified="2024-02-03T08:21:21.955Z" agent="Mozilla/5.0 (Windows NT 10.0; Win64; x64) AppleWebKit/537.36 (KHTML, like Gecko) Chrome/121.0.0.0 Safari/537.36" etag="8ooXJsAIZ831xtHUBlVJ" version="23.1.1" type="github">
  <diagram name="Page-1" id="E_m7uqv8q-BkT2iJlU77">
    <mxGraphModel dx="1248" dy="508" grid="1" gridSize="10" guides="1" tooltips="1" connect="1" arrows="1" fold="1" page="1" pageScale="1" pageWidth="827" pageHeight="1169" math="0" shadow="0">
      <root>
        <mxCell id="0" />
        <mxCell id="1" parent="0" />
        <mxCell id="MGeUVpR0s7c0yKANGd0--1" value="" style="shape=cylinder3;whiteSpace=wrap;html=1;boundedLbl=1;backgroundOutline=1;size=15;" vertex="1" parent="1">
          <mxGeometry x="88" y="377" width="60" height="80" as="geometry" />
        </mxCell>
        <mxCell id="MGeUVpR0s7c0yKANGd0--2" value="Users" style="text;html=1;strokeColor=none;fillColor=none;align=center;verticalAlign=middle;whiteSpace=wrap;rounded=0;" vertex="1" parent="1">
          <mxGeometry x="88" y="417" width="60" height="30" as="geometry" />
        </mxCell>
        <mxCell id="MGeUVpR0s7c0yKANGd0--3" value="" style="shape=cylinder3;whiteSpace=wrap;html=1;boundedLbl=1;backgroundOutline=1;size=15;" vertex="1" parent="1">
          <mxGeometry x="328" y="377" width="60" height="80" as="geometry" />
        </mxCell>
        <mxCell id="MGeUVpR0s7c0yKANGd0--4" value="Projects" style="text;html=1;strokeColor=none;fillColor=none;align=center;verticalAlign=middle;whiteSpace=wrap;rounded=0;" vertex="1" parent="1">
          <mxGeometry x="328" y="415" width="60" height="30" as="geometry" />
        </mxCell>
        <mxCell id="MGeUVpR0s7c0yKANGd0--5" value="" style="shape=cylinder3;whiteSpace=wrap;html=1;boundedLbl=1;backgroundOutline=1;size=15;" vertex="1" parent="1">
          <mxGeometry x="208" y="377" width="60" height="80" as="geometry" />
        </mxCell>
        <mxCell id="MGeUVpR0s7c0yKANGd0--6" value="User Project Mapping" style="text;html=1;strokeColor=none;fillColor=none;align=center;verticalAlign=middle;whiteSpace=wrap;rounded=0;" vertex="1" parent="1">
          <mxGeometry x="208" y="415" width="60" height="30" as="geometry" />
        </mxCell>
        <mxCell id="MGeUVpR0s7c0yKANGd0--7" value="" style="rounded=1;whiteSpace=wrap;html=1;" vertex="1" parent="1">
          <mxGeometry x="108" y="173" width="260" height="60" as="geometry" />
        </mxCell>
        <mxCell id="MGeUVpR0s7c0yKANGd0--8" value="API Service Layer" style="text;html=1;strokeColor=none;fillColor=none;align=center;verticalAlign=middle;whiteSpace=wrap;rounded=0;" vertex="1" parent="1">
          <mxGeometry x="173" y="188" width="140" height="30" as="geometry" />
        </mxCell>
        <mxCell id="MGeUVpR0s7c0yKANGd0--9" value="" style="shape=flexArrow;endArrow=classic;html=1;rounded=0;entryX=0;entryY=0;entryDx=0;entryDy=0;" edge="1" parent="1" target="MGeUVpR0s7c0yKANGd0--6">
          <mxGeometry width="50" height="50" relative="1" as="geometry">
            <mxPoint x="148" y="417" as="sourcePoint" />
            <mxPoint x="198" y="367" as="targetPoint" />
          </mxGeometry>
        </mxCell>
        <mxCell id="MGeUVpR0s7c0yKANGd0--10" value="" style="shape=flexArrow;endArrow=classic;html=1;rounded=0;entryX=0;entryY=0;entryDx=0;entryDy=0;" edge="1" parent="1">
          <mxGeometry width="50" height="50" relative="1" as="geometry">
            <mxPoint x="328" y="417" as="sourcePoint" />
            <mxPoint x="268" y="419" as="targetPoint" />
          </mxGeometry>
        </mxCell>
        <mxCell id="MGeUVpR0s7c0yKANGd0--11" value="" style="endArrow=none;html=1;rounded=0;" edge="1" parent="1">
          <mxGeometry width="50" height="50" relative="1" as="geometry">
            <mxPoint x="118" y="337" as="sourcePoint" />
            <mxPoint x="358" y="337" as="targetPoint" />
          </mxGeometry>
        </mxCell>
        <mxCell id="MGeUVpR0s7c0yKANGd0--12" value="" style="endArrow=classic;html=1;rounded=0;entryX=0.5;entryY=0;entryDx=0;entryDy=0;entryPerimeter=0;" edge="1" parent="1" target="MGeUVpR0s7c0yKANGd0--3">
          <mxGeometry width="50" height="50" relative="1" as="geometry">
            <mxPoint x="358" y="337" as="sourcePoint" />
            <mxPoint x="408" y="287" as="targetPoint" />
          </mxGeometry>
        </mxCell>
        <mxCell id="MGeUVpR0s7c0yKANGd0--13" value="" style="endArrow=classic;html=1;rounded=0;entryX=0.5;entryY=0;entryDx=0;entryDy=0;entryPerimeter=0;" edge="1" parent="1">
          <mxGeometry width="50" height="50" relative="1" as="geometry">
            <mxPoint x="241" y="337" as="sourcePoint" />
            <mxPoint x="240.5" y="377" as="targetPoint" />
          </mxGeometry>
        </mxCell>
        <mxCell id="MGeUVpR0s7c0yKANGd0--14" value="" style="endArrow=classic;html=1;rounded=0;entryX=0.5;entryY=0;entryDx=0;entryDy=0;entryPerimeter=0;" edge="1" parent="1">
          <mxGeometry width="50" height="50" relative="1" as="geometry">
            <mxPoint x="118.5" y="337" as="sourcePoint" />
            <mxPoint x="118" y="377" as="targetPoint" />
          </mxGeometry>
        </mxCell>
        <mxCell id="MGeUVpR0s7c0yKANGd0--15" value="" style="shape=flexArrow;endArrow=classic;startArrow=classic;html=1;rounded=0;" edge="1" parent="1">
          <mxGeometry width="100" height="100" relative="1" as="geometry">
            <mxPoint x="240" y="329" as="sourcePoint" />
            <mxPoint x="240" y="244" as="targetPoint" />
          </mxGeometry>
        </mxCell>
        <mxCell id="MGeUVpR0s7c0yKANGd0--16" value="" style="rounded=1;whiteSpace=wrap;html=1;" vertex="1" parent="1">
          <mxGeometry x="173" y="20" width="120" height="60" as="geometry" />
        </mxCell>
        <mxCell id="MGeUVpR0s7c0yKANGd0--17" value="Client" style="text;html=1;strokeColor=none;fillColor=none;align=center;verticalAlign=middle;whiteSpace=wrap;rounded=0;" vertex="1" parent="1">
          <mxGeometry x="200" y="35" width="60" height="30" as="geometry" />
        </mxCell>
        <mxCell id="MGeUVpR0s7c0yKANGd0--18" value="" style="shape=flexArrow;endArrow=classic;startArrow=classic;html=1;rounded=0;" edge="1" parent="1">
          <mxGeometry width="100" height="100" relative="1" as="geometry">
            <mxPoint x="237.5" y="170" as="sourcePoint" />
            <mxPoint x="237.5" y="85" as="targetPoint" />
          </mxGeometry>
        </mxCell>
      </root>
    </mxGraphModel>
  </diagram>
</mxfile>
